<?xml version="1.0" standalone="no"?>
<!DOCTYPE svg PUBLIC "-//W3C//DTD SVG 20010904//EN"
 "http://www.w3.org/TR/2001/REC-SVG-20010904/DTD/svg10.dtd">
<svg version="1.0" xmlns="http://www.w3.org/2000/svg"
 width="984.000000pt" height="984.000000pt" viewBox="0 0 984.000000 984.000000"
 preserveAspectRatio="xMidYMid meet">
<metadata>
Created by potrace 1.14, written by Peter Selinger 2001-2017
</metadata>
<g transform="translate(0.000000,984.000000) scale(0.100000,-0.100000)"
fill="#000000" stroke="none">
<path d="M1565 9820 c-59 -13 -126 -37 -195 -71 -91 -45 -116 -64 -200 -148
-53 -53 -114 -123 -135 -156 -155 -237 -252 -574 -297 -1030 -17 -167 -17
-795 0 -1010 68 -880 187 -1568 397 -2297 55 -192 182 -579 199 -607 4 -5 -22
-29 -56 -54 -426 -305 -729 -859 -815 -1489 -24 -181 -24 -568 0 -753 84 -627
348 -1188 755 -1607 192 -197 364 -324 598 -441 226 -113 381 -157 552 -157
344 1 590 169 646 442 44 212 3 445 -178 1025 -126 404 -233 789 -222 800 1 1
40 -41 87 -94 204 -235 525 -539 802 -760 790 -633 1779 -1103 2642 -1256 224
-40 261 -45 435 -61 562 -50 1118 -10 1657 119 304 73 580 224 793 435 232
230 370 542 370 835 -1 211 -89 394 -260 539 -172 147 -390 248 -835 390 -707
226 -1194 417 -1695 667 -587 294 -1038 602 -1437 982 -171 163 -453 480 -440
493 8 8 217 -12 332 -32 252 -43 363 -81 710 -247 428 -204 629 -246 830 -173
281 102 424 406 340 721 -51 187 -216 419 -496 696 -470 465 -971 741 -1539
846 -135 25 -498 25 -625 0 -150 -30 -264 -66 -384 -123 -63 -30 -115 -53
-117 -52 -5 6 -118 279 -171 413 -195 495 -293 773 -458 1305 -265 852 -511
1355 -806 1651 -127 128 -270 215 -414 255 -94 25 -263 28 -370 4z m328 -318
c136 -48 289 -187 416 -376 198 -297 360 -689 586 -1421 160 -515 347 -1027
567 -1547 l71 -168 -44 -47 c-262 -283 -418 -677 -476 -1208 -9 -82 -17 -152
-19 -154 -2 -2 -42 11 -89 28 -414 150 -854 167 -1215 48 -41 -14 -76 -24 -76
-24 -1 1 -29 83 -63 182 -303 881 -497 1996 -517 2980 -14 639 53 1084 209
1390 88 172 241 304 387 335 68 14 197 5 263 -18z m3047 -3457 c354 -74 707
-249 1035 -511 245 -197 551 -533 633 -697 80 -162 66 -311 -40 -401 -52 -45
-105 -60 -188 -53 -107 10 -203 46 -540 207 -237 113 -353 158 -500 194 -513
124 -1016 112 -1505 -38 -138 -43 -292 -101 -418 -160 -54 -25 -101 -46 -104
-46 -10 0 8 178 32 335 99 630 411 1041 881 1161 150 38 206 43 404 39 152 -3
207 -8 310 -30z m-833 -1561 c-3 -3 -12 -4 -19 -1 -8 3 -5 6 6 6 11 1 17 -2
13 -5z m-1597 -163 c52 -11 134 -32 182 -47 l87 -27 -108 -106 c-397 -391
-565 -883 -511 -1491 32 -352 108 -667 340 -1400 135 -425 174 -672 124 -770
-20 -40 -103 -80 -184 -89 -111 -12 -208 3 -320 50 -450 184 -791 517 -1031
1004 -379 772 -350 1697 72 2331 47 70 111 147 178 215 186 186 365 285 616
339 123 27 413 22 555 -9z m759 -343 c130 -228 351 -539 561 -788 152 -181
560 -587 741 -737 678 -564 1399 -959 2189 -1197 572 -173 1228 -256 1789
-227 125 6 267 16 315 22 48 6 89 9 92 7 9 -10 -77 -121 -151 -194 -121 -119
-300 -230 -485 -302 -111 -43 -435 -107 -745 -149 -167 -22 -848 -25 -1020 -5
-475 57 -923 176 -1370 365 -1021 432 -1895 1107 -2550 1971 l-89 117 12 127
c36 382 166 659 423 907 100 96 216 188 228 180 4 -2 31 -46 60 -97z m5808
-2450 c-3 -8 -6 -5 -6 6 -1 11 2 17 5 13 3 -3 4 -12 1 -19z m-2030 -14 c-3 -3
-12 -4 -19 -1 -8 3 -5 6 6 6 11 1 17 -2 13 -5z m260 -60 c-3 -3 -12 -4 -19 -1
-8 3 -5 6 6 6 11 1 17 -2 13 -5z m90 -20 c-3 -3 -12 -4 -19 -1 -8 3 -5 6 6 6
11 1 17 -2 13 -5z m1680 -26 c-3 -8 -6 -5 -6 6 -1 11 2 17 5 13 3 -3 4 -12 1
-19z m-1344 -25 c-7 -2 -19 -2 -25 0 -7 3 -2 5 12 5 14 0 19 -2 13 -5z m1220
0 c-7 -2 -19 -2 -25 0 -7 3 -2 5 12 5 14 0 19 -2 13 -5z m-1135 -10 c-10 -2
-26 -2 -35 0 -10 3 -2 5 17 5 19 0 27 -2 18 -5z m1060 0 c-10 -2 -26 -2 -35 0
-10 3 -2 5 17 5 19 0 27 -2 18 -5z m-970 -10 c-10 -2 -26 -2 -35 0 -10 3 -2 5
17 5 19 0 27 -2 18 -5z m880 0 c-10 -2 -26 -2 -35 0 -10 3 -2 5 17 5 19 0 27
-2 18 -5z m-785 -10 c-7 -2 -19 -2 -25 0 -7 3 -2 5 12 5 14 0 19 -2 13 -5z
m680 0 c-7 -2 -19 -2 -25 0 -7 3 -2 5 12 5 14 0 19 -2 13 -5z"/>
</g>
</svg>
